<?xml version="1.0" encoding="UTF-8" standalone="no"?>
<svg
   xmlns:dc="http://purl.org/dc/elements/1.1/"
   xmlns:cc="http://creativecommons.org/ns#"
   xmlns:rdf="http://www.w3.org/1999/02/22-rdf-syntax-ns#"
   xmlns:svg="http://www.w3.org/2000/svg"
   xmlns="http://www.w3.org/2000/svg"
   xmlns:sodipodi="http://sodipodi.sourceforge.net/DTD/sodipodi-0.dtd"
   xmlns:inkscape="http://www.inkscape.org/namespaces/inkscape"
   viewBox="0 0 22 22"
   version="1.1"
   id="svg3869"
   height="22"
   width="22"
   sodipodi:docname="lliurexquota.svg"
   inkscape:version="0.92.3 (2405546, 2018-03-11)">
  <sodipodi:namedview
     pagecolor="#ffffff"
     bordercolor="#666666"
     borderopacity="1"
     objecttolerance="10"
     gridtolerance="10"
     guidetolerance="10"
     inkscape:pageopacity="0"
     inkscape:pageshadow="2"
     inkscape:window-width="1920"
     inkscape:window-height="852"
     id="namedview23"
     showgrid="false"
     inkscape:zoom="10.727273"
     inkscape:cx="63.130881"
     inkscape:cy="-7.0885833"
     inkscape:window-x="0"
     inkscape:window-y="36"
     inkscape:window-maximized="1"
     inkscape:current-layer="layer1" />
  <defs
     id="defs3871" />
  <metadata
     id="metadata3874">
    <rdf:RDF>
      <cc:Work
         rdf:about="">
        <dc:format>image/svg+xml</dc:format>
        <dc:type
           rdf:resource="http://purl.org/dc/dcmitype/StillImage" />
        <dc:title />
      </cc:Work>
    </rdf:RDF>
  </metadata>
  <g
     transform="translate(-326,-534.3622)"
     id="layer1">
    <g
       style="fill:#008080"
       id="lliurexquota">
      <path
         style="fill:#008080;fill-opacity:1;stroke:none"
         d="m 328.99219,537.3622 v 1 15 h 1 9 v -1 h -9 v -8 h 3 v -0.01 l 0.008,0.01 2,-2 h 8.99219 v 3 h 1 v -6 H 338 l -2,-2 -0.008,0.01 v -0.01 h -6 z"
         id="rect4127"
         inkscape:connector-curvature="0" />
      <path
         style="opacity:1;fill:#008080;fill-opacity:1;stroke:none;stroke-opacity:1"
         d="m 17,12 a 3,1 0 0 0 -3,1 v 5 a 3,1 0 0 0 3,1 3,1 0 0 0 3,-1 v -5 a 3,1 0 0 0 -3,-1 z m 0,1 a 3,1 0 0 1 2,0.257812 v 0.486329 A 3,1 0 0 1 17,14 3,1 0 0 1 15,13.742188 V 13.255859 A 3,1 0 0 1 17,13 Z m -2,1.744141 A 3,1 0 0 0 17,15 3,1 0 0 0 19,14.744141 v 1 A 3,1 0 0 1 17,16 3,1 0 0 1 15,15.742188 Z m 0,2 A 3,1 0 0 0 17,17 3,1 0 0 0 19,16.744141 v 1 A 3,1 0 0 1 17,18 3,1 0 0 1 15,17.742188 Z"
         transform="translate(326,534.3622)"
         id="path4203"
         inkscape:connector-curvature="0" />
    </g>
    <g
       style="fill:#008000"
       id="lliurexquota-missing"
       transform="translate(30.008,-0.010017)">
      <path
         style="fill:#008000;fill-opacity:1;stroke:none"
         d="m 328.99219,537.3622 v 1 15 h 1 9 v -1 h -9 v -8 h 3 v -0.01 l 0.008,0.01 2,-2 h 8.99219 v 3 h 1 v -6 H 338 l -2,-2 -0.008,0.01 v -0.01 h -6 z"
         id="rect4127-2"
         inkscape:connector-curvature="0" />
      <path
         style="fill:#008000;fill-opacity:1;stroke:none"
         d="m 17,12 a 3,1 0 0 0 -3,1 v 5 a 3,1 0 0 0 3,1 3,1 0 0 0 3,-1 v -5 a 3,1 0 0 0 -3,-1 z m 0,1 a 3,1 0 0 1 2,0.257812 v 0.486329 A 3,1 0 0 1 17,14 3,1 0 0 1 15,13.742188 V 13.255859 A 3,1 0 0 1 17,13 Z m -2,1.744141 A 3,1 0 0 0 17,15 3,1 0 0 0 19,14.744141 v 1 A 3,1 0 0 1 17,16 3,1 0 0 1 15,15.742188 Z m 0,2 A 3,1 0 0 0 17,17 3,1 0 0 0 19,16.744141 v 1 A 3,1 0 0 1 17,18 3,1 0 0 1 15,17.742188 Z"
         transform="translate(326,534.3622)"
         id="path4203-8"
         inkscape:connector-curvature="0" />
      <path
         style="fill:#008000;fill-opacity:1;stroke:none"
         d="m 11,9 c -0.55228,0 -1,0.44772 -1,1 0,0.55228 0.44772,4 1,4 0.55228,0 1,-3.44772 1,-4 0,-0.55228 -0.44772,-1 -1,-1 z m 0,6 a 1,1 0 0 0 -1,1 1,1 0 0 0 1,1 1,1 0 0 0 1,-1 1,1 0 0 0 -1,-1 z"
         transform="translate(326,534.3622)"
         id="path4247"
         inkscape:connector-curvature="0" />
    </g>
    <g
       style="fill:#ff7f2a"
       id="lliurexquota-low"
       transform="translate(56.008,-1.7e-5)">
      <path
         style="fill:#ff7f2a;fill-opacity:1;stroke:none"
         d="m 328.99219,537.3622 v 1 15 h 1 9 v -1 h -9 v -8 h 3 v -0.01 l 0.008,0.01 2,-2 h 8.99219 v 3 h 1 v -6 H 338 l -2,-2 -0.008,0.01 v -0.01 h -6 z"
         id="rect4127-6"
         inkscape:connector-curvature="0" />
      <path
         style="fill:#ff7f2a;fill-opacity:1;stroke:none"
         d="m 17,12 c -1.656854,0 -3,0.447715 -3,1 v 5 c 0,0.552285 1.343146,1 3,1 1.656854,0 3,-0.447715 3,-1 v -5 c 0,-0.552285 -1.343146,-1 -3,-1 z m 0,1 c 0.739186,8.7e-4 1.451386,0.09268 2,0.257812 v 0.486329 C 18.450517,13.908567 17.738413,13.999666 17,14 16.260814,13.99913 15.548614,13.907323 15,13.742188 V 13.255859 C 15.549483,13.091433 16.261587,13.000334 17,13 Z m -2,1.744141 c 0.549483,0.164426 1.261587,0.255525 2,0.255859 0.738413,-3.34e-4 1.450517,-0.09143 2,-0.255859 v 1 C 18.450517,15.908567 17.738413,15.999666 17,16 16.260814,15.99913 15.548614,15.90732 15,15.742188 Z"
         transform="translate(326,534.3622)"
         id="path4203-0"
         inkscape:connector-curvature="0" />
    </g>
    <g
       style="fill:#ff8080"
       id="lliurexquota-high"
       transform="translate(81.008,-1.7e-5)">
      <path
         style="fill:#ff8080;fill-opacity:1;stroke:none"
         d="m 328.99219,537.3622 v 1 15 h 1 9 v -1 h -9 v -8 h 3 v -0.01 l 0.008,0.01 2,-2 h 8.99219 v 3 h 1 v -6 H 338 l -2,-2 -0.008,0.01 v -0.01 h -6 z"
         id="rect4127-1"
         inkscape:connector-curvature="0" />
      <path
         style="fill:#ff8080;fill-opacity:1;stroke:none"
         d="m 17,12 c -1.656854,0 -3,0.447715 -3,1 v 5 c 0,0.552285 1.343146,1 3,1 1.656854,0 3,-0.447715 3,-1 v -5 c 0,-0.552285 -1.343146,-1 -3,-1 z m 0,1 c 0.739186,8.7e-4 1.451386,0.09268 2,0.257812 v 0.486329 C 18.450517,13.908567 17.738413,13.999666 17,14 16.260814,13.99913 15.548614,13.907323 15,13.742188 V 13.255859 C 15.549483,13.091433 16.261587,13.000334 17,13 Z"
         transform="translate(326,534.3622)"
         id="path4203-2"
         inkscape:connector-curvature="0" />
    </g>
    <g
       style="fill:#ff0000"
       id="lliurexquota-critical"
       transform="translate(106.008,-1.7e-5)">
      <path
         style="fill:#ff0000;fill-opacity:1;stroke:none"
         d="m 328.99219,537.3622 v 1 15 h 1 9 v -1 h -9 v -8 h 3 v -0.01 l 0.008,0.01 2,-2 h 8.99219 v 3 h 1 v -6 H 338 l -2,-2 -0.008,0.01 v -0.01 h -6 z"
         id="rect4127-65"
         inkscape:connector-curvature="0" />
      <path
         style="fill:#ff0000;fill-opacity:1;stroke:none"
         d="m 17,12 c -1.656854,0 -3,0.447715 -3,1 v 5 c 0,0.552285 1.343146,1 3,1 1.656854,0 3,-0.447715 3,-1 v -5 c 0,-0.552285 -1.343146,-1 -3,-1 z m 0,1 c 0.739186,8.7e-4 1.451386,0.09268 2,0.257812 v 0.486329 C 18.450517,13.908567 17.738413,13.999666 17,14 16.260814,13.99913 15.548614,13.907323 15,13.742188 V 13.255859 C 15.549483,13.091433 16.261587,13.000334 17,13 Z"
         transform="translate(326,534.3622)"
         id="path4203-5"
         inkscape:connector-curvature="0" />
      <path
         style="fill:#ff0000;fill-opacity:1;stroke:none"
         d="m 337,543.3622 c -0.55228,0 -1,0.44772 -1,1 0,0.55228 0.44772,4 1,4 0.55228,0 1,-3.44772 1,-4 0,-0.55228 -0.44772,-1 -1,-1 z m 0,6 a 1,1 0 0 0 -1,1 1,1 0 0 0 1,1 1,1 0 0 0 1,-1 1,1 0 0 0 -1,-1 z"
         id="path4247-9"
         inkscape:connector-curvature="0" />
    </g>
  </g>
</svg>
